<svg width="442" height="210" viewBox="0 0 442 210" fill="none" xmlns="http://www.w3.org/2000/svg">
<path d="M275.5 32.0001C317 28.5471 434.005 115.338 434.005 115.338C434.005 115.338 324.5 186.5 279 180C233.5 173.5 143.067 109.316 143.067 109.316C143.067 109.316 234 35.453 275.5 32.0001Z" stroke="white" stroke-width="2"/>
<path d="M62 24.5L143.823 109.262L73 188C94.5587 120.703 92.2395 84.8759 62 24.5Z" stroke="white" stroke-width="2"/>
<path d="M378.255 102.681C385.231 102.826 390.644 108.159 390.514 114.438C390.384 120.716 384.755 125.821 377.779 125.676C370.803 125.532 365.39 120.199 365.52 113.92C365.65 107.641 371.279 102.537 378.255 102.681Z" stroke="white" stroke-width="2"/>
<path d="M295.438 129.5L235 154.5C252.306 115.397 251.228 98.591 235 64.9999L295.438 92.9655" stroke="white" stroke-width="2"/>
</svg>
