<svg width="150" height="243" viewBox="0 0 150 243" fill="none" xmlns="http://www.w3.org/2000/svg">
<path d="M149 75C149 85.2196 146.93 93.2775 143.241 99.6287C139.556 105.976 134.217 110.683 127.571 114.146C114.231 121.098 95.6959 123 75 123C54.3041 123 35.7694 121.098 22.4291 114.146C15.7835 110.683 10.4443 105.976 6.75863 99.6287C3.0704 93.2775 1 85.2196 1 75C1 34.1309 34.1309 1 75 1C115.869 1 149 34.1309 149 75Z" stroke="white" stroke-width="2"/>
<path d="M41.5 121.004C41.5 121.004 33 150.5 35.5 162C38 173.5 46.5 202 44 213C41.5 224 40.5 240.004 40.5 240.004" stroke="white" stroke-width="2"/>
<path d="M107.5 121.004C107.5 121.004 120.5 141.5 110 162C99.5001 182.5 109 195.5 105.5 206.5C102 217.5 106.5 240.004 106.5 240.004" stroke="white" stroke-width="2"/>
<path d="M87.5 123.004C87.5 123.004 81.5 148.5 84 160C86.5 171.5 90 198.5 87.5 206C85 213.5 86.5 242.004 86.5 242.004" stroke="white" stroke-width="2"/>
<path d="M61.5 123.004C61.5 123.004 70.5 132.5 69 141C67.5 149.5 59 173.5 57.5 183C56 192.5 70.5 212 64 220.5C57.5 229 60.5 242.004 60.5 242.004" stroke="white" stroke-width="2"/>
</svg>
