<svg width="248" height="284" viewBox="0 0 248 284" fill="none" xmlns="http://www.w3.org/2000/svg">
<path d="M136.602 77.9999C113.602 70.9999 78.5 83.4998 78.5 80.5C78.5 77.5002 81 74.4999 81 72.4999C81 70.4999 71 66.5 72 64.5C73 62.5 103 57.4999 114.5 43.9999C126 30.4999 152.5 24.4999 152.5 24.4999C152.5 24.4999 153 38.9999 159 45.4999C165 51.9999 172 52.5 172 52.5C172 52.5 168 62.4999 172 67.9999C176 73.4999 182.5 76.4999 182.5 76.4999C182.5 76.4999 180 90.4999 182.5 97.9999C185 105.5 192.5 109 192.5 109C183.784 123.063 184.248 131.268 195 146.5C185.085 163.382 183.935 172.366 189.5 187.5C178.671 198.917 175.417 205.988 175.5 220C163.473 226.709 158.711 231.209 163 244C151.894 248.051 148.048 251.985 145.5 262C132.734 262.079 126.036 263.549 115 269C107.687 263.832 103.801 261.85 97.5 261C94.6373 251.067 85.9998 248 82.9999 240C80 232 82.4998 214 91.4999 207.5C100.5 201 119 191 127.5 195C136 199 141.5 203 135 213.5C128.5 224 117.5 228.5 117.5 228.5C117.5 228.5 129.801 220 127.5 210.5C125.199 201 109 213.5 105.5 220C102 226.5 100.5 227.5 103 235C105.5 242.5 121.5 248.5 132 244C142.5 239.5 155.192 202.981 152.5 175C150.797 157.297 142.5 150.5 137.5 132C132.5 113.5 145 104 143.5 92C142 80 132.5 78.4663 137.5 77.5C142.5 76.5337 154.533 66.3865 137.5 62.5" stroke="white" stroke-width="2"/>
<path d="M137.5 62C140.674 61.5718 143.296 61.1233 148.5 56.4999C147.271 62.9058 147.892 65.5275 154 66.5001C150.551 68.2954 150.024 69.9239 154 75.0001C149.087 73.8894 146.871 74.2365 143 75.0001" stroke="white" stroke-width="2"/>
</svg>
